<?xml version="1.0" encoding="utf-8"?>
<!-- Generator: Adobe Illustrator 17.0.0, SVG Export Plug-In . SVG Version: 6.00 Build 0)  -->
<!DOCTYPE svg PUBLIC "-//W3C//DTD SVG 1.1//EN" "http://www.w3.org/Graphics/SVG/1.1/DTD/svg11.dtd">
<svg version="1.1" id="Layer_1" xmlns="http://www.w3.org/2000/svg" xmlns:xlink="http://www.w3.org/1999/xlink" x="0px" y="0px"
	 width="105.032px" height="78.032px" viewBox="0 0 105.032 78.032" enable-background="new 0 0 105.032 78.032"
	 xml:space="preserve">
<rect x="1.615" y="1.115" fill="#343434" stroke="#C4E7D7" stroke-miterlimit="10" width="102.333" height="75.5"/>
<path fill="#C4E7D7" d="M45.865,36.282c7,4,7.167,10,7.167,10v17H15.865v-17c0,0-0.125-6.083,7.167-10l0.079-0.052
	c-1.58-2.234-2.508-4.962-2.508-7.906c0-7.571,6.137-13.708,13.708-13.708s13.708,6.137,13.708,13.708
	c0,2.886-0.892,5.563-2.414,7.772L45.865,36.282z"/>
<path fill="#C4E7D7" d="M89.949,29.702c1.566,0,2.835-1.269,2.835-2.835s-1.269-2.835-2.835-2.835h-28
	c-1.566,0-2.835,1.269-2.835,2.835s1.269,2.835,2.835,2.835H89.949z"/>
<path fill="#C4E7D7" d="M89.949,42.616c1.566,0,2.835-1.269,2.835-2.835s-1.269-2.835-2.835-2.835h-28
	c-1.566,0-2.835,1.269-2.835,2.835s1.269,2.835,2.835,2.835H89.949z"/>
<path fill="#C4E7D7" d="M89.949,55.53c1.566,0,2.835-1.269,2.835-2.835s-1.269-2.835-2.835-2.835h-28
	c-1.566,0-2.835,1.269-2.835,2.835s1.269,2.835,2.835,2.835H89.949z"/>
</svg>
