<?xml version="1.0" encoding="utf-8"?>
<!-- Generator: Adobe Illustrator 17.0.0, SVG Export Plug-In . SVG Version: 6.00 Build 0)  -->
<!DOCTYPE svg PUBLIC "-//W3C//DTD SVG 1.1//EN" "http://www.w3.org/Graphics/SVG/1.1/DTD/svg11.dtd">
<svg version="1.1" id="Layer_1" xmlns="http://www.w3.org/2000/svg" xmlns:xlink="http://www.w3.org/1999/xlink" x="0px" y="0px"
	 width="105.032px" height="78.032px" viewBox="0 0 105.032 78.032" enable-background="new 0 0 105.032 78.032"
	 xml:space="preserve">
<rect x="1" y="1.652" fill="#343434" stroke="#C5E5D6" stroke-miterlimit="10" width="102.333" height="75.5"/>
<g>
	<path fill="#C5E5D6" d="M46.789,38.128"/>
	<path fill="#C5E5D6" d="M58.988,39.784h25.746v25.381H19.599V39.784c0,0,27.162,0,27.162,0.001c0.359,2.665,2.642,4.72,5.406,4.72
		c2.763,0,5.047-2.055,5.406-4.72L58.988,39.784z"/>
	<path fill="#C5E5D6" d="M57.544,38.128h27.191V17.744H19.599v20.384c0,0,27.19,0,27.19-0.001c0.438-2.573,2.679-4.532,5.377-4.532
		C54.865,33.595,57.106,35.554,57.544,38.128z"/>
	<path fill="#C5E5D6" d="M38.956,17.743h5.225v-2.292h16.452v2.292h5.225v-3.759c-0.403-3.212-4.09-3.759-4.09-3.759H43.334
		c-4.263,0.518-4.378,4.263-4.378,4.263S38.956,17.744,38.956,17.743z"/>
</g>
</svg>
