<?xml version="1.0" encoding="utf-8"?>
<!-- Generator: Adobe Illustrator 17.0.0, SVG Export Plug-In . SVG Version: 6.00 Build 0)  -->
<!DOCTYPE svg PUBLIC "-//W3C//DTD SVG 1.1//EN" "http://www.w3.org/Graphics/SVG/1.1/DTD/svg11.dtd">
<svg version="1.1" id="Layer_1" xmlns="http://www.w3.org/2000/svg" xmlns:xlink="http://www.w3.org/1999/xlink" x="0px" y="0px"
	 width="105.032px" height="78.032px" viewBox="0 0 105.032 78.032" enable-background="new 0 0 105.032 78.032"
	 xml:space="preserve">
<rect x="1.211" y="1.266" fill="#343434" stroke="#C5E5D6" stroke-miterlimit="10" width="102.333" height="75.5"/>
<rect x="19.753" y="12.516" fill="none" stroke="#C5E5D6" stroke-miterlimit="10" width="65.25" height="47.5"/>
<line fill="none" stroke="#C5E5D6" stroke-miterlimit="10" x1="19.753" y1="52.766" x2="85.003" y2="52.766"/>
<polyline fill="none" stroke="#C5E5D6" stroke-miterlimit="10" points="42.628,60.016 38.878,67.516 65.753,67.516 62.628,60.016 
	"/>
<g>
	<path fill="#C5E5D6" d="M41.721,40.955c0.441,0.287,0.705,0.573,0.727,1.124c0,0.617-0.529,1.212-1.146,1.212
		c-0.375,0-0.684-0.198-0.948-0.374l-9.059-6.018c-0.485-0.308-0.815-0.551-0.815-1.189c-0.022-0.617,0.331-0.882,0.815-1.191
		l9.081-6.039c0.264-0.176,0.573-0.33,0.904-0.33c0.639,0,1.146,0.573,1.168,1.189c0,0.574-0.353,0.882-0.772,1.168l-7.846,5.202
		L41.721,40.955z"/>
	<path fill="#C5E5D6" d="M49.056,44.018c-0.265,0.463-0.53,0.771-1.08,0.771c-0.551,0-1.102-0.463-1.102-1.036
		c0-0.418,0.264-0.793,0.485-1.145l8.243-14.129c0.265-0.44,0.529-0.837,1.08-0.837c0.573,0,1.08,0.463,1.08,1.035
		c0,0.353-0.11,0.617-0.242,0.86L49.056,44.018z"/>
	<path fill="#C5E5D6" d="M70.826,35.709l-7.846-5.202c-0.419-0.286-0.772-0.594-0.772-1.168c0.022-0.617,0.529-1.189,1.168-1.189
		c0.331,0,0.64,0.154,0.904,0.33l9.081,6.039c0.485,0.308,0.837,0.574,0.815,1.191c0,0.638-0.331,0.881-0.815,1.189l-9.059,6.018
		c-0.264,0.176-0.573,0.374-0.948,0.374c-0.617,0-1.146-0.595-1.146-1.212c0.022-0.551,0.286-0.837,0.727-1.124L70.826,35.709z"/>
</g>
</svg>
