<?xml version="1.0" encoding="utf-8"?>
<!-- Generator: Adobe Illustrator 17.0.0, SVG Export Plug-In . SVG Version: 6.00 Build 0)  -->
<!DOCTYPE svg PUBLIC "-//W3C//DTD SVG 1.1//EN" "http://www.w3.org/Graphics/SVG/1.1/DTD/svg11.dtd">
<svg version="1.1" id="Layer_1" xmlns="http://www.w3.org/2000/svg" xmlns:xlink="http://www.w3.org/1999/xlink" x="0px" y="0px"
	 width="105.032px" height="78.032px" viewBox="0 0 105.032 78.032" enable-background="new 0 0 105.032 78.032"
	 xml:space="preserve">
<rect x="1.349" y="1.532" fill="#343434" stroke="#C5E5D6" stroke-miterlimit="10" width="102.333" height="75.5"/>
<g>
	<path fill="#C7E6D6" d="M29.83,32.131l-1.037-2.725h-8.826L18.93,32.19c-0.406,1.086-0.751,1.819-1.037,2.199
		c-0.286,0.38-0.754,0.57-1.407,0.57c-0.552,0-1.042-0.202-1.466-0.606c-0.424-0.406-0.638-0.864-0.638-1.377
		c0-0.296,0.049-0.601,0.148-0.919c0.099-0.316,0.261-0.754,0.488-1.318l5.553-14.098c0.158-0.404,0.347-0.891,0.57-1.459
		c0.222-0.567,0.458-1.039,0.712-1.413c0.253-0.375,0.582-0.679,0.993-0.91c0.409-0.232,0.915-0.348,1.517-0.348
		c0.613,0,1.124,0.117,1.533,0.348c0.409,0.232,0.739,0.531,0.993,0.896c0.251,0.366,0.463,0.758,0.638,1.178
		c0.173,0.419,0.393,0.979,0.659,1.679l5.673,14.009c0.445,1.066,0.666,1.842,0.666,2.325c0,0.504-0.209,0.965-0.629,1.385
		c-0.421,0.421-0.925,0.629-1.518,0.629c-0.345,0-0.643-0.062-0.889-0.184c-0.246-0.123-0.454-0.291-0.621-0.504
		c-0.169-0.212-0.348-0.537-0.541-0.978C30.132,32.854,29.968,32.466,29.83,32.131z M21.122,26.103h6.486l-3.272-8.959
		L21.122,26.103z"/>
	<path fill="#C7E6D6" d="M88.248,53.643c2.14,0,3.873-1.734,3.873-3.873s-1.734-3.873-3.873-3.873H16.784
		c-2.14,0-3.873,1.734-3.873,3.873s1.734,3.873,3.873,3.873H88.248z"/>
	<path fill="#C7E6D6" d="M88.248,66.055c2.14,0,3.873-1.734,3.873-3.873c0-2.14-1.734-3.873-3.873-3.873H16.784
		c-2.14,0-3.873,1.734-3.873,3.873c0,2.14,1.734,3.873,3.873,3.873H88.248z"/>
	<g>
		<polygon fill="#C7E6D6" points="41.219,25.073 53.762,25.073 53.762,30.498 60.526,23.734 53.762,16.972 53.762,22.395 
			41.219,22.395 		"/>
	</g>
	<g>
		<path fill="#C7E6D6" d="M81.274,14.996c1.318,0.199,3.707,0.721,3.707,1.965c0,1.068-1.193,1.392-3.73,1.914
			c-1.467,0.299-3.084,0.523-4.65,0.67c-0.074,0.721-0.125,1.642-0.174,2.562c1.44-0.371,2.509-0.371,3.255-0.371
			c0.026-0.398,0-0.771-0.099-1.119l0.074-0.074c0.672,0.248,1.168,0.697,1.443,1.293c3.931,0.523,6.989,2.761,6.989,6.093
			c0,3.73-2.935,6.218-11.243,6.94l-0.123-0.422c5.024-0.721,7.536-3.757,7.561-6.665c0-2.238-0.845-4.103-2.91-4.876
			c0,0.174,0.025,0.348,0.025,0.523c0,1.168-1.068,3.607-2.91,5.77c0.051,0.199,0.1,0.422,0.1,0.621c0,0.621-0.348,1.89-1.469,1.89
			c-0.322,0-0.67-0.125-0.97-0.348c-1.517,1.094-3.259,1.865-5.272,1.865c-1.343,0-3.009-0.945-3.009-2.761
			c0-3.183,2.437-6.069,5.944-7.585v-3.158c-0.299,0-0.598,0.025-0.896,0.025c-2.041,0-3.507-1.566-3.683-3.058l0.125-0.076
			c0.398,0.447,1.369,0.697,2.861,0.697c0.521,0,1.068-0.025,1.615-0.051c0.025-0.67,0.051-1.691,0.051-2.039
			c0-1.019-0.299-1.293-1.791-1.219l-0.051-0.1c0.373-0.771,1.443-1.392,2.287-1.392c2.363,0,3.531,0.92,3.531,1.716
			c0,0.424-0.521,0.945-0.621,1.394c-0.099,0.422-0.174,0.795-0.274,1.269c0.746-0.074,3.98-0.621,4.228-1.84L81.274,14.996z
			 M72.32,29.968c0.598,0,1.443-0.373,2.287-0.945c-0.795-2.039-0.795-3.904-0.795-4.626c-1.791,1.293-2.96,3.009-2.96,4.378
			C70.852,29.745,71.151,29.968,72.32,29.968z M76.449,23.03c0,0.822,0,2.314,0.697,3.755c1.068-1.119,2.015-2.886,2.388-4.204
			c-0.125,0-0.248-0.025-0.348-0.025C78.241,22.557,77.294,22.731,76.449,23.03z"/>
	</g>
</g>
</svg>
