<?xml version="1.0" encoding="utf-8"?>
<!-- Generator: Adobe Illustrator 17.0.0, SVG Export Plug-In . SVG Version: 6.00 Build 0)  -->
<!DOCTYPE svg PUBLIC "-//W3C//DTD SVG 1.1//EN" "http://www.w3.org/Graphics/SVG/1.1/DTD/svg11.dtd">
<svg version="1.1" id="Layer_1" xmlns="http://www.w3.org/2000/svg" xmlns:xlink="http://www.w3.org/1999/xlink" x="0px" y="0px"
	 width="105.032px" height="78.032px" viewBox="0 0 105.032 78.032" enable-background="new 0 0 105.032 78.032"
	 xml:space="preserve">
<rect x="1.349" y="1.266" fill="#C5E5D6" stroke="#343434" stroke-miterlimit="10" width="102.333" height="75.5"/>
<path fill="#343434" d="M83.282,54.015c1.842,0,3.335-1.493,3.335-3.335s-1.493-3.335-3.335-3.335H21.749
	c-1.842,0-3.335,1.493-3.335,3.335s1.493,3.335,3.335,3.335H83.282z"/>
<g>
	<path fill="#343434" d="M23.043,24.458v4.905h7.488v-4.905c0-0.7,0.157-1.227,0.473-1.576c0.316-0.351,0.73-0.526,1.244-0.526
		c0.522,0,0.944,0.174,1.268,0.521s0.485,0.874,0.485,1.582v13.49c0,0.707-0.164,1.238-0.491,1.589s-0.747,0.526-1.262,0.526
		c-0.522,0-0.938-0.177-1.249-0.532c-0.311-0.354-0.467-0.881-0.467-1.582v-5.757h-7.488v5.757c0,0.707-0.163,1.238-0.491,1.589
		c-0.327,0.351-0.747,0.526-1.261,0.526c-0.522,0-0.94-0.177-1.249-0.532c-0.311-0.354-0.467-0.881-0.467-1.582v-13.49
		c0-0.7,0.153-1.227,0.461-1.576s0.726-0.526,1.256-0.526c0.522,0,0.944,0.174,1.268,0.521C22.88,23.221,23.043,23.75,23.043,24.458
		z"/>
	<path fill="#343434" d="M45.257,22.355c1.774,0,3.3,0.361,4.572,1.081c1.273,0.72,2.237,1.745,2.891,3.072s0.981,2.888,0.981,4.678
		c0,1.324-0.178,2.527-0.538,3.608c-0.358,1.082-0.896,2.02-1.612,2.816c-0.716,0.794-1.596,1.401-2.64,1.822
		c-1.043,0.42-2.238,0.631-3.585,0.631c-1.339,0-2.538-0.216-3.597-0.648c-1.06-0.432-1.943-1.041-2.652-1.828
		s-1.244-1.733-1.606-2.838s-0.543-2.301-0.543-3.585c0-1.316,0.188-2.523,0.566-3.621s0.924-2.032,1.641-2.803
		s1.589-1.36,2.616-1.769C42.778,22.562,43.948,22.355,45.257,22.355z M50.185,31.161c0-1.254-0.204-2.34-0.607-3.259
		c-0.406-0.918-0.983-1.613-1.735-2.084c-0.751-0.471-1.614-0.707-2.586-0.707c-0.693,0-1.333,0.13-1.921,0.391
		c-0.589,0.262-1.094,0.641-1.518,1.139s-0.76,1.135-1.005,1.91c-0.245,0.774-0.368,1.646-0.368,2.611
		c0,0.973,0.122,1.854,0.368,2.639c0.245,0.787,0.591,1.439,1.04,1.957c0.447,0.518,0.962,0.906,1.541,1.162
		c0.58,0.258,1.217,0.385,1.91,0.385c0.887,0,1.704-0.222,2.446-0.666c0.743-0.443,1.336-1.129,1.776-2.056
		C49.965,33.657,50.185,32.517,50.185,31.161z"/>
	<path fill="#343434" d="M60.067,24.458v12.463h7.031c0.56,0,0.992,0.136,1.29,0.409c0.299,0.272,0.45,0.615,0.45,1.027
		c0,0.42-0.149,0.761-0.444,1.023c-0.296,0.26-0.727,0.391-1.296,0.391h-8.373c-0.757,0-1.299-0.167-1.63-0.502
		c-0.331-0.334-0.495-0.876-0.495-1.623V24.459c0-0.7,0.157-1.227,0.473-1.576s0.73-0.526,1.244-0.526
		c0.522,0,0.942,0.174,1.266,0.521C59.904,23.221,60.067,23.75,60.067,24.458z"/>
	<path fill="#343434" d="M81.755,37.831l-0.818-2.149h-6.96l-0.818,2.196c-0.32,0.856-0.591,1.435-0.818,1.735
		c-0.225,0.3-0.596,0.45-1.109,0.45c-0.436,0-0.821-0.16-1.156-0.478c-0.334-0.32-0.501-0.682-0.501-1.087
		c0-0.233,0.038-0.474,0.116-0.724c0.079-0.249,0.207-0.596,0.385-1.039l4.381-11.118c0.125-0.32,0.274-0.703,0.449-1.15
		c0.175-0.447,0.364-0.819,0.56-1.116c0.2-0.296,0.46-0.535,0.784-0.717c0.323-0.183,0.722-0.274,1.197-0.274
		c0.482,0,0.886,0.092,1.208,0.274s0.583,0.419,0.782,0.706c0.2,0.289,0.366,0.597,0.502,0.928s0.31,0.773,0.519,1.326l4.473,11.049
		c0.351,0.842,0.525,1.452,0.525,1.834c0,0.396-0.164,0.761-0.497,1.091c-0.33,0.331-0.73,0.497-1.197,0.497
		c-0.273,0-0.507-0.05-0.7-0.147c-0.195-0.098-0.359-0.229-0.491-0.396c-0.133-0.168-0.274-0.424-0.427-0.771
		C81.994,38.402,81.864,38.096,81.755,37.831z M74.888,33.077h5.115l-2.581-7.066L74.888,33.077z"/>
</g>
</svg>
