<?xml version="1.0" encoding="utf-8"?>
<!-- Generator: Adobe Illustrator 17.0.0, SVG Export Plug-In . SVG Version: 6.00 Build 0)  -->
<!DOCTYPE svg PUBLIC "-//W3C//DTD SVG 1.1//EN" "http://www.w3.org/Graphics/SVG/1.1/DTD/svg11.dtd">
<svg version="1.1" id="Layer_1" xmlns="http://www.w3.org/2000/svg" xmlns:xlink="http://www.w3.org/1999/xlink" x="0px" y="0px"
	 width="33.67px" height="31.498px" viewBox="0 0 33.67 31.498" enable-background="new 0 0 33.67 31.498" xml:space="preserve">
<path fill="#C4E7D7" d="M30.835,5.67c1.566,0,2.835-1.269,2.835-2.835S32.401,0,30.835,0h-28C1.269,0,0,1.269,0,2.835
	S1.269,5.67,2.835,5.67H30.835z"/>
<path fill="#C4E7D7" d="M30.835,18.584c1.566,0,2.835-1.269,2.835-2.835s-1.269-2.835-2.835-2.835h-28
	C1.269,12.914,0,14.183,0,15.749s1.269,2.835,2.835,2.835H30.835z"/>
<path fill="#C4E7D7" d="M30.835,31.498c1.566,0,2.835-1.269,2.835-2.835s-1.269-2.835-2.835-2.835h-28
	C1.269,25.828,0,27.097,0,28.663s1.269,2.835,2.835,2.835H30.835z"/>
</svg>
