<?xml version="1.0" encoding="utf-8"?>
<!-- Generator: Adobe Illustrator 17.0.0, SVG Export Plug-In . SVG Version: 6.00 Build 0)  -->
<!DOCTYPE svg PUBLIC "-//W3C//DTD SVG 1.1//EN" "http://www.w3.org/Graphics/SVG/1.1/DTD/svg11.dtd">
<svg version="1.1" id="Layer_1" xmlns="http://www.w3.org/2000/svg" xmlns:xlink="http://www.w3.org/1999/xlink" x="0px" y="0px"
	 width="105.032px" height="78.032px" viewBox="0 0 105.032 78.032" enable-background="new 0 0 105.032 78.032"
	 xml:space="preserve">
<rect x="1.349" y="1.623" fill="#343434" stroke="#C5E5D6" stroke-miterlimit="10" width="102.333" height="75.5"/>
<path fill="#C5E5D6" d="M60.333,52.384c1.566,0,2.835-1.269,2.835-2.835s-1.269-2.835-2.835-2.835H8.031
	c-1.566,0-2.835,1.269-2.835,2.835s1.269,2.835,2.835,2.835H60.333z"/>
<path fill="#C5E5D6" d="M42.605,33.781c0.746,0,1.351-0.605,1.351-1.351s-0.605-1.351-1.351-1.351h-24.93
	c-0.746,0-1.351,0.605-1.351,1.351s0.605,1.351,1.351,1.351H42.605z"/>
<path fill="#C5E5D6" d="M60.333,63.298c1.566,0,2.835-1.269,2.835-2.835s-1.269-2.835-2.835-2.835H8.031
	c-1.566,0-2.835,1.269-2.835,2.835s1.269,2.835,2.835,2.835H60.333z"/>
<g>
	<g>
		<rect x="69.92" y="7.982" fill="none" width="28.101" height="54.667"/>
		<g>
			<path fill="#C5E5D6" d="M90.279,68.163c-3.329-2.077-6.476-4.258-9.188-7.12c-1.933,2.226-3.716,4.184-4.462,7.12
				c-6.41-11.44,6.411-29.439,0-40.879c4.55,0,9.1,0,13.65,0C96.689,38.723,83.869,56.722,90.279,68.163z"/>
		</g>
		<polygon fill="#C5E5D6" points="95.149,29.051 89.219,28.283 88.501,34.197 84.192,30.067 80.171,34.436 79.15,28.589 
			73.275,29.723 75.876,24.362 70.471,21.828 75.721,19.058 72.792,13.9 78.722,14.668 79.44,8.754 83.75,12.884 87.77,8.514 
			88.791,14.362 94.667,13.228 92.066,18.589 97.47,21.123 92.22,23.893 		"/>
	</g>
</g>
<path fill="#C5E5D6" d="M18.465,22.573c0.667,0,1.207-0.54,1.207-1.207s-0.54-1.207-1.207-1.207H6.541
	c-0.667,0-1.207,0.54-1.207,1.207s0.54,1.207,1.207,1.207H18.465z"/>
<path fill="#C5E5D6" d="M53.465,22.573c0.667,0,1.207-0.54,1.207-1.207s-0.54-1.207-1.207-1.207H41.541
	c-0.667,0-1.207,0.54-1.207,1.207s0.54,1.207,1.207,1.207H53.465z"/>
<circle fill="#C5E5D6" cx="30.14" cy="21.365" r="5.918"/>
</svg>
